<?xml version="1.0" encoding="utf-8"?>
<!-- Generator: Adobe Illustrator 25.4.1, SVG Export Plug-In . SVG Version: 6.00 Build 0)  -->
<svg version="1.1" id="Layer_1" xmlns="http://www.w3.org/2000/svg" xmlns:xlink="http://www.w3.org/1999/xlink" x="0px" y="0px"
	 viewBox="0 0 58 58" style="enable-background:new 0 0 58 58;" xml:space="preserve">
<style type="text/css">
	.st0{fill-rule:evenodd;clip-rule:evenodd;fill:#CC7A5B;}
</style>
<path class="st0" d="M25.1,17c0.9,0,1.6,0.7,1.6,1.6v0.1c0,0.3,0,0.5,0,0.8c0.1,10.1,2,14.6,3.6,16.6c0.8,1,1.6,1.4,2.1,1.5
	c0.2,0.1,0.4,0.1,0.5,0.1c0.1,0,0.1,0,0.1,0c0.2,0,0.4,0,0.6,0c0,0,0,0,0,0c0,0,0.1,0,0.1,0c0.1,0,0.3,0,0.6,0
	c0.5,0,1.2-0.2,1.9-0.8c1.4-1.2,3.4-4.4,3.4-13.2c0,0,0,0,0,0v0c0,0,0,0,0,0l0,0c0,0,0,0,0-0.1c0-0.1,0-0.1,0-0.2
	c0-0.2,0-0.4,0.1-0.7c0.1-0.6,0.2-1.3,0.6-2.1c0.3-0.8,0.9-1.7,1.8-2.4c0.9-0.7,2.1-1.1,3.5-1.1h0c1.4,0,2.5,0.5,3.3,1.2
	c0.8,0.7,1.3,1.6,1.6,2.4c0.3,0.8,0.5,1.6,0.5,2.2c0,0.3,0.1,0.5,0.1,0.7c0,0.1,0,0.2,0,0.2c0,0,0,0,0,0.1c0,0,0,0,0,0l0,0v0
	c0,0,0,0-1.6,0l1.6,0c0,0,0,0,0,0c0,8.6,2,11.9,3.4,13c0.7,0.6,1.4,0.8,1.9,0.8c0.3,0,0.5,0,0.6,0c0.1,0,0.1,0,0.1,0c0,0,0,0,0,0
	c0,0,0,0,0,0l0,0l0,0l0,0c0,0,0,0,0.4,1.5c0.4,1.5,0.4,1.5,0.4,1.5l0,0l0,0c0,0,0,0,0,0c0,0,0,0,0,0c0,0,0,0,0,0c0,0-0.1,0-0.1,0
	c-0.1,0-0.2,0-0.4,0.1c-0.3,0-0.7,0.1-1.2,0c-1-0.1-2.3-0.4-3.6-1.5c-2.6-2.1-4.6-6.5-4.6-15.5c0,0,0,0,0,0c0,0,0-0.1,0-0.1
	c0-0.1,0-0.3,0-0.5c-0.1-0.4-0.2-0.9-0.4-1.4c-0.2-0.5-0.4-0.9-0.7-1.2c-0.3-0.2-0.6-0.4-1.2-0.4c-0.8,0-1.2,0.2-1.5,0.5
	c-0.3,0.3-0.6,0.6-0.8,1.1c-0.2,0.5-0.3,1-0.4,1.3c0,0.2,0,0.3,0,0.4c0,0.1,0,0.1,0,0.1c0,0,0,0,0,0v0c0,9-2,13.5-4.6,15.6
	c-1.3,1.1-2.6,1.4-3.6,1.5c-0.5,0-0.9,0-1.2,0c-0.1,0-0.2,0-0.3,0c-0.1,0-0.2,0-0.3,0c-0.3,0-0.8-0.1-1.3-0.3
	c-1.1-0.3-2.3-1.1-3.5-2.5c-1-1.3-2-3-2.8-5.5c-0.8,2.6-1.8,4.4-2.8,5.6c-1.2,1.5-2.5,2.2-3.6,2.5c-0.5,0.2-1,0.2-1.3,0.2
	c-0.2,0-0.3,0-0.4,0c0,0,0,0,0,0c0,0,0,0,0,0c-0.1,0-0.3,0-0.4,0c-0.3,0-0.8-0.1-1.3-0.2c-1.1-0.3-2.4-1-3.6-2.5
	c-1.1-1.3-2-3-2.8-5.6C8,35.1,7,36.9,5.9,38.2c-1.2,1.5-2.5,2.2-3.6,2.5c-0.5,0.2-1,0.2-1.3,0.2c-0.2,0-0.3,0-0.4,0
	c-0.1,0-0.1,0-0.1,0c0,0,0,0-0.1,0c0,0,0,0,0,0l0,0l0,0c0,0,0,0,0.2-1.6c0.2-1.6,0.2-1.6,0.2-1.6l0,0l0,0c0,0,0,0,0,0c0,0,0,0,0,0
	c0,0,0,0,0,0s0,0,0,0c0,0,0,0,0.1,0c0.1,0,0.3,0,0.6-0.1c0.5-0.1,1.2-0.5,2.1-1.5c1.6-1.9,3.6-6.4,3.7-16.6c0-0.3,0-0.6,0-0.9
	c0-0.9,0.7-1.6,1.6-1.6c0.9,0,1.6,0.7,1.6,1.6v0.1c0,0.3,0,0.5,0,0.8c0.1,10.1,2,14.6,3.7,16.6c0.8,1,1.6,1.4,2.1,1.5
	c0.3,0.1,0.4,0.1,0.6,0.1c0.1,0,0.1,0,0.1,0c0.1,0,0.2,0,0.4,0c0,0,0,0,0.1,0c0.1,0,0.3,0,0.6-0.1c0.5-0.1,1.2-0.5,2.1-1.5
	c1.6-1.9,3.6-6.4,3.7-16.6c0-0.3,0-0.6,0-0.9C23.5,17.7,24.2,17,25.1,17z M16.7,37.7L16.7,37.7L16.7,37.7L16.7,37.7z M33.6,37.8
	L33.6,37.8L33.6,37.8L33.6,37.8z"/>
</svg>
