<svg width="500" height="500" viewBox="0 0 500 500" fill="none" xmlns="http://www.w3.org/2000/svg">
<path d="M255.102 254.289C267.42 224.218 279.598 194.489 292.11 163.94C281.05 172.081 269.791 177.902 257.559 181.806C237.058 188.319 215.97 189.995 194.733 187.965C180.242 186.585 165.903 183.637 151.493 181.376C150.563 181.231 149.655 180.941 148.611 180.694V148.582C156.306 150.826 163.919 153.237 171.634 155.256C185.119 158.785 198.851 160.75 212.809 160.487C241.558 159.95 266.705 149.94 288.529 131.344C305.266 117.081 318.326 99.8169 329.784 81.2261L332.811 76.3341C335.611 84.0122 336.817 92.1793 336.354 100.338C335.343 122.097 328.789 142.535 321.031 162.662C311.034 188.581 301.053 214.503 291.088 240.429C283.288 260.692 275.481 280.953 267.667 301.212C267.414 301.867 267.06 302.485 266.802 303.027C262.307 297.485 258.199 291.686 253.328 286.558C243.854 276.537 232.574 269.562 218.293 269.266C202.593 268.939 192.485 278.395 189.426 294.913C187.044 307.801 192.974 317.386 201.034 326.14C208.561 334.297 217.756 340.268 227.38 345.772C240.569 353.328 251.693 363.101 258.274 377.208C262.608 386.487 262.844 395.874 258.812 405.341C258.602 406.044 258.45 406.762 258.355 407.489C265.85 407.489 273.125 407.409 280.399 407.489C304.938 407.817 329.477 408.606 354.011 408.418C368.684 408.305 383.346 406.711 398.014 405.733C405.197 405.255 410.649 401.926 415.354 396.384C429.032 380.274 440.99 363.026 449.958 343.86C471.705 297.56 476.777 245.179 464.319 195.574C454.985 158.833 437.226 126.624 411.364 98.9148C395.513 81.9385 377.054 67.5927 356.683 56.4168C326.993 40.0599 295.212 31.0652 261.323 29.32C229.735 27.6424 198.156 32.7855 168.737 44.3987C139.319 56.0119 112.753 73.8223 90.8499 96.6164C67.8108 120.55 50.8474 148.259 40.3468 179.813C34.026 198.777 30.3038 218.508 29.2816 238.469C27.7237 268.336 32.2491 298.209 42.5841 326.278C52.919 354.348 68.8486 380.032 89.4089 401.776C100.857 413.942 113.634 424.787 127.503 434.108C128.253 434.705 128.971 435.341 129.653 436.014C114.185 436.014 99.5063 436.052 84.8334 435.939C83.6935 435.939 82.3547 435.091 81.4515 434.264C57.3801 412.247 38.1316 386.611 24.1146 357.167C10.7643 329.173 2.81686 298.917 0.68843 267.983C-1.4439 239.301 1.38617 210.467 9.05453 182.745C16.8166 154.605 29.5397 128.072 46.6267 104.392C61.0007 84.2656 78.3037 66.3959 97.9632 51.3744C127.535 28.8206 160.526 13.4679 197.023 5.64918C218.467 1.05801 240.415 -0.746919 262.323 0.279212C311.973 2.65779 359.777 19.8124 399.589 49.5379C439.808 79.63 470.046 121.097 486.382 168.562C502.717 216.026 504.397 267.298 491.202 315.727C485.593 336.229 477.35 355.92 466.679 374.308C456.792 391.449 445.291 407.323 430.903 420.962C426.43 425.205 421.435 428.948 416.386 432.529C412.87 435.032 408.859 436.122 404.262 436.111C340.763 435.968 277.265 435.936 213.766 436.014H208.927C211.336 432.497 213.411 429.635 215.304 426.665C220.068 419.19 224.444 411.517 226.38 402.737C229.041 390.778 226.127 380.757 216.024 373.304C206.314 366.135 196.378 359.267 186.867 351.824C174.726 342.335 166.403 330.167 163.973 314.642C161.241 297.373 162.499 280.559 172.774 265.776C182.85 251.277 196.969 243.426 214.901 243.184C229.17 242.986 242.703 245.687 255.102 254.289Z" fill="#774C24"/>
</svg>
